<?xml version="1.0" encoding="utf-8"?>
<!-- Generator: Adobe Illustrator 16.0.0, SVG Export Plug-In . SVG Version: 6.00 Build 0)  -->
<!DOCTYPE svg PUBLIC "-//W3C//DTD SVG 1.1//EN" "http://www.w3.org/Graphics/SVG/1.1/DTD/svg11.dtd">
<svg version="1.1" id="Capa_2" xmlns="http://www.w3.org/2000/svg" xmlns:xlink="http://www.w3.org/1999/xlink" x="0px" y="0px"
	 width="792px" height="612px" viewBox="0 0 792 612" enable-background="new 0 0 792 612" xml:space="preserve">
<path fill="none" stroke="#010202" stroke-miterlimit="10" d="M358.592,157.598c0,0,169.492,6,229.489-31.499
	c0,0,4.499,89.995,7.499,95.995s-3-6-3-6s30,73.498-2.999,115.495c0,0-28.499,89.994-65.997,100.494c0,0-40.498,7.5-55.497-10.499
	l-62.997-55.497c0,0-35.998-30.18-29.998-60.088C375.092,306,366.092,165.098,358.592,157.598z"/>
<polygon fill="none" stroke="#010202" stroke-miterlimit="10" points="420.089,186.097 471.087,247.594 429.089,313.59 
	371.41,255.508 "/>
<path fill="none" stroke="#010202" stroke-miterlimit="10" d="M396,249.843c0,0-11.909-29.249,31.589-15.749
	c0,0,24.714,5.09,29.999,15.749c0,0,10.418,20.249-31.539,11.25C426.049,261.093,392.238,267.348,396,249.843z"/>
<path fill="none" stroke="#010202" stroke-miterlimit="10" d="M498.085,249.843c0,0,16.499-102.745,85.496-56.247"/>
<path fill="none" stroke="#010202" stroke-miterlimit="10" d="M514.585,246.967c0,0,38.997-51.49,68.996-16.432
	c0,0,7.5,14.306-34.498,16.432C549.083,246.967,527.943,257.632,514.585,246.967z"/>
<line fill="none" stroke="#010202" stroke-miterlimit="10" x1="458.735" y1="292.591" x2="465.087" y2="313.59"/>
<path fill="none" stroke="#010202" stroke-miterlimit="10" d="M471.087,313.59c0,0,23.998-7.5,26.998,0
	c0,0,7.501-13.499,16.5-10.499"/>
<path fill="none" stroke="#010202" stroke-miterlimit="10" d="M540.833,298.8c0,0,20.249,5.791,20.249,20.79"/>
<path fill="none" stroke="#010202" stroke-miterlimit="10" d="M436.589,334.589c0,0,50.245,14.999,114.368-14.999
	C550.957,319.59,513.086,415.584,436.589,334.589z"/>
<path fill="none" stroke="#010202" stroke-miterlimit="10" d="M492.836,388.587c0,0,24.748,6,29.248,0"/>
<path fill="none" stroke="#010202" stroke-miterlimit="10" d="M157.603,215.681c0,0,85.495-56.653,200.99,2.629
	c0,0,44.998,97.615,0,172.944c0,0-52.497,124.825-110.994,97.827c0,0-20.999,12-61.497-46.497c0,0-62.997-86.365-41.998-139.928
	C144.103,302.656,165.102,239.265,157.603,215.681z"/>
<path fill="none" stroke="#010202" stroke-miterlimit="10" d="M184.601,230.535c0,0,59.997-23.111,67.497,4.474"/>
<path fill="none" stroke="#010202" stroke-miterlimit="10" d="M273.097,319.59c0,0-6.562-143.993,96.464-69.747"/>
<polygon fill="none" stroke="#010202" stroke-miterlimit="10" points="286.596,292.591 345.093,246.967 375.092,306 
	321.287,351.088 "/>
<path fill="none" stroke="#010202" stroke-miterlimit="10" d="M330.844,313.59c0,0,33.748,16.318,27.749-7.59
	c0,0,17.963-1.36-13.517-26.133c0,0-49.692,4.548-47.979,18.933C297.096,298.8,323.559,310.657,330.844,313.59z"/>
<path fill="none" stroke="#010202" stroke-miterlimit="10" d="M235.599,292.591c0,0-12-23.999-32.999-23.999
	c0,0-40.498,7.5-37.498,23.999C165.102,292.591,232.599,310.59,235.599,292.591z"/>
<path fill="none" stroke="#010202" stroke-miterlimit="10" d="M200.271,319.026c0,0,11.17,27.562,0,32.062
	C200.271,351.088,164.943,345.461,200.271,319.026z"/>
<path fill="none" stroke="#010202" stroke-miterlimit="10" d="M194.902,391.254c0,0-22.3-14.668,33.197-40.166v-9.004"/>
<path fill="none" stroke="#010202" stroke-miterlimit="10" d="M238.5,349c0,0,18.409,3.5,20.705,7.5c0,0,17.295-8,20.295-3.75"/>
<path fill="none" stroke="#010202" stroke-miterlimit="10" d="M290.5,343.33c0,0,9.192,10.17-3.904,15.67"/>
<path fill="none" stroke="#010202" stroke-miterlimit="10" d="M315,407c0,0,10.573-12.5,6.287-22l-27.651-32.25"/>
<path fill="none" stroke="#010202" stroke-miterlimit="10" d="M205.235,402c0,0,4.765-33,50.265-28c0,0,46.5,2,49,38.5
	c0,0-15.5,17-39-3C265.5,409.5,205.471,413.5,205.235,402z"/>
<path fill="none" stroke="#010202" stroke-miterlimit="10" d="M235.599,439.5c0,0,20.901-17,31.401,6.5"/>
</svg>
