<?xml version="1.0" encoding="utf-8"?>
<!-- Generator: Adobe Illustrator 22.1.0, SVG Export Plug-In . SVG Version: 6.00 Build 0)  -->
<svg version="1.1" id="Layer_2" xmlns="http://www.w3.org/2000/svg" xmlns:xlink="http://www.w3.org/1999/xlink" x="0px" y="0px"
	 viewBox="0 0 612 792" style="enable-background:new 0 0 612 792;" xml:space="preserve">
<style type="text/css">
	.st0{fill:#211A16;}
	.st1{fill:#FFFFFF;}
	.st2{fill:#EBC0C9;}
</style>
<path class="st0" d="M380.2,145.5c0,0,23.7-2.2,33.5-18.8c0,0,15-12,4.6-33.2c0,0-13.2-17.2-17.3-18.3l-1.8,3c0,0,5.2,18-3.3,16.4
	c0,0-15,4.4-10.9,21.5C385.1,116.1,385.4,143.3,380.2,145.5z"/>
<path class="st1" d="M413.2,108.7v13.6c0,0-3.3,11.7-10.1,13.1c0,0,3-7.9,3.5-10.1c0,0-1.4-4.9-1.9-6.3
	C404.7,119.1,410.5,109.2,413.2,108.7z"/>
<path class="st0" d="M408.1,60c0,0,12,11.6,11.1,22.5c0,0-8.2-9.8-12.5-10.2C406.7,72.4,406.6,61.5,408.1,60z"/>
<path class="st2" d="M257.8,758.6c0,0,13.1-31.6,14.2-75.5c0,0,0.5-73.8-7.1-81.8l-9-12c0,0-31.9-98.6-26.4-119.4
	c0,0-10.1-64.6,29.4-58.9c0,0,30.5,1.1,35.2,4.9c0,0,59.7,16.7,82.6-5.3c0,0,57-34.2,25.3-101.6c0,0-34.3-49.1-56.7-68.4
	c0,0-38.2-41.7-39.5-47.1c0,0-44.1-63.2-13.1-111.2c0,0,35.2-55.9,92.9-21.5c0,0,13.2,11.9,13.6,17.2c0,0,7.8-10.5,3.8-24.1
	c0,0-27.9-31.3-77.3-16.9c0,0-52,13.5-58.7,65.8c0,0-9,55.6,10.5,80.7c0,0,38.2,59.3,46.9,61.7c0,0,34.6,45,38.4,47.1
	c0,0,24.8,24,21.8,61.3c0,0-6.1,48.4-67.7,46.9c0,0-56.5-6.1-61.7-4.7c0,0-35-0.3-36,31.3c0,0-0.1,51.5,5.6,71.7
	c0,0,22.1,85.8,27.8,91.3c0,0-0.9,19.9,8.6,31.6c0,0,9.4,33.1,6.1,56.4C267.4,678.2,265.5,750.9,257.8,758.6z"/>
<path class="st2" d="M127.6,432.7c0,0,18-93.2,97.6-103.8c0,0,68.1-9,98.4,8.2c0,0,36.8,14.2,42-4.1c0,0,13.1-21.5-16.9-35.4
	c0,0-58-25.9-124.5-1.4C224.1,296.2,131.4,321.8,127.6,432.7z"/>
<path class="st2" d="M163.3,434.1c0,0,9.3-51.5,51.8-62.4c0,0,39-11.7,60-4.1c0,0,20.4,9.8,22.6,9.5c0,0,18,4.9,22.1-9.5
	c0,0,6.3-16.1-12.5-19.6c0,0-35.8-13.6-65.2-5.5c0,0-43.6,9.8-52,26.7C190,369.2,165.5,395.1,163.3,434.1z"/>
</svg>
